<svg width="24" height="24" viewBox="0 0 24 24" fill="none" xmlns="http://www.w3.org/2000/svg">
<path d="M22.8787 1.12118C22.5232 0.765726 22.1012 0.483761 21.6367 0.291387C21.1723 0.0990138 20.6745 0 20.1718 0C19.669 0 19.1712 0.0990138 18.7068 0.291387C18.2423 0.483761 17.8203 0.765726 17.4649 1.12118L2.6755 15.9104C2.31394 16.2722 2.04145 16.713 1.87953 17.1982L0.0516097 22.6831C-0.00728684 22.8593 -0.0159634 23.0483 0.0265525 23.2291C0.0690684 23.4098 0.161097 23.5752 0.292322 23.7066C0.423548 23.838 0.588785 23.9303 0.769514 23.9731C0.950243 24.0159 1.13932 24.0075 1.31556 23.9489L6.80133 22.1192C7.28731 21.9593 7.72729 21.6853 8.08927 21.3234L22.8787 6.53816C23.2342 6.18276 23.5162 5.76082 23.7086 5.29644C23.901 4.83205 24 4.33432 24 3.83167C24 3.32902 23.901 2.83129 23.7086 2.36691C23.5162 1.90252 23.2342 1.48058 22.8787 1.12518V1.12118ZM18.8788 2.53691C19.0486 2.36715 19.2502 2.23248 19.472 2.1406C19.6939 2.04873 19.9316 2.00144 20.1718 2.00144C20.4119 2.00144 20.6497 2.04873 20.8715 2.1406C21.0934 2.23248 21.2949 2.36715 21.4647 2.53691C21.6345 2.70668 21.7692 2.90823 21.8611 3.13004C21.953 3.35185 22.0003 3.58958 22.0003 3.82967C22.0003 4.06976 21.953 4.3075 21.8611 4.52931C21.7692 4.75112 21.6345 4.95266 21.4647 5.12243L19.9988 6.58816L17.4129 4.00264L18.8808 2.53691H18.8788ZM15.9989 5.41638L18.5828 8.00189L6.67533 19.9077C6.53333 20.0502 6.3601 20.1576 6.16935 20.2216L2.5815 21.4174L3.77745 17.83C3.84063 17.6388 3.94744 17.4649 4.08944 17.3221L15.9989 5.41638Z" fill="#FACC15"/>
</svg>
