<svg width="18" height="18" viewBox="0 0 18 18" fill="none" xmlns="http://www.w3.org/2000/svg">
<path d="M6.71429 1H2.14286C1.51167 1 1 1.51167 1 2.14286V6.71429C1 7.34547 1.51167 7.85714 2.14286 7.85714H6.71429C7.34547 7.85714 7.85714 7.34547 7.85714 6.71429V2.14286C7.85714 1.51167 7.34547 1 6.71429 1Z" stroke="white" stroke-width="1.4"/>
<path d="M15.8571 1H11.2857C10.6545 1 10.1429 1.51167 10.1429 2.14286V6.71429C10.1429 7.34547 10.6545 7.85714 11.2857 7.85714H15.8571C16.4883 7.85714 17 7.34547 17 6.71429V2.14286C17 1.51167 16.4883 1 15.8571 1Z" stroke="white" stroke-width="1.4"/>
<path d="M15.8571 10.1429H11.2857C10.6545 10.1429 10.1429 10.6545 10.1429 11.2857V15.8571C10.1429 16.4883 10.6545 17 11.2857 17H15.8571C16.4883 17 17 16.4883 17 15.8571V11.2857C17 10.6545 16.4883 10.1429 15.8571 10.1429Z" stroke="white" stroke-width="1.4"/>
<path d="M6.71429 10.1429H2.14286C1.51167 10.1429 1 10.6545 1 11.2857V15.8571C1 16.4883 1.51167 17 2.14286 17H6.71429C7.34547 17 7.85714 16.4883 7.85714 15.8571V11.2857C7.85714 10.6545 7.34547 10.1429 6.71429 10.1429Z" stroke="white" stroke-width="1.4"/>
</svg>
