<?xml version="1.0" standalone="no"?>
<!DOCTYPE svg PUBLIC "-//W3C//DTD SVG 20010904//EN"
 "http://www.w3.org/TR/2001/REC-SVG-20010904/DTD/svg10.dtd">
<svg version="1.0" xmlns="http://www.w3.org/2000/svg"
 width="1000.000000pt" height="1000.000000pt" viewBox="0 0 1000.000000 1000.000000"
 preserveAspectRatio="xMidYMid meet">

<g transform="translate(0.000000,1000.000000) scale(0.100000,-0.100000)"
fill="#000000" stroke="none">
<path d="M8279 7200 c27 -49 36 -78 56 -173 5 -27 8 -28 63 -26 l58 2 -15 32
c-9 18 -20 30 -25 27 -5 -3 -6 0 -2 6 4 6 -30 49 -79 99 l-85 88 29 -55z"/>
<path d="M8271 6716 c-17 -27 -21 -50 -21 -125 l0 -91 -112 0 c-62 0 -119 -4
-126 -8 -9 -6 -12 -33 -10 -98 l3 -89 33 -3 c18 -2 32 1 32 7 0 6 10 11 23 11
12 1 40 8 62 16 22 9 50 15 61 15 18 0 22 7 28 46 3 25 6 58 6 73 0 27 2 28
66 32 47 3 70 9 79 21 7 9 18 17 25 17 7 0 10 7 6 15 -3 8 1 18 8 22 12 8 18
24 34 98 l6 30 6 -30 c6 -28 7 -27 11 14 4 38 2 44 -19 52 -13 5 -59 9 -102 9
-78 0 -78 0 -99 -34z"/>
<path d="M1903 6526 c15 -14 35 -26 44 -26 19 0 19 0 -32 29 l-40 23 28 -26z"/>
<path d="M2000 6460 c0 -28 41 -75 55 -63 4 5 5 3 2 -3 -4 -6 5 -22 20 -35 14
-13 23 -18 19 -11 -6 10 -2 13 15 10 16 -2 23 -9 22 -22 -1 -12 2 -15 9 -8 7
7 24 6 54 -3 51 -15 51 -15 56 83 l3 52 -70 0 c-38 0 -96 6 -127 14 l-58 13 0
-27z"/>
<path d="M2498 6398 c4 -96 9 -110 32 -98 10 5 61 10 113 10 109 0 107 -2 107
91 l0 59 -127 0 -128 0 3 -62z"/>
<path d="M3000 6388 l5 -73 107 0 c84 0 104 -3 96 -12 -6 -7 -7 -13 -2 -13 11
0 36 16 34 21 -1 2 1 11 4 19 3 8 6 41 8 73 l3 57 -130 0 -130 0 5 -72z"/>
<path d="M3502 6378 c3 -46 7 -87 7 -92 1 -5 7 -3 15 3 14 11 71 10 83 -3 4
-3 20 8 36 26 25 27 28 35 18 51 -13 19 -6 39 7 22 4 -6 14 -11 22 -13 8 -2
22 -10 31 -18 24 -22 27 -18 31 46 l3 60 -130 0 -130 0 7 -82z"/>
<path d="M4000 6393 c0 -38 4 -73 8 -79 4 -6 51 -10 119 -10 62 1 113 1 114 1
0 0 4 35 7 78 l8 77 -128 0 -128 0 0 -67z"/>
<path d="M4498 6388 c3 -48 9 -76 20 -87 13 -13 15 -14 10 -1 -5 13 9 15 100
12 80 -3 107 -1 113 10 5 7 9 41 9 76 l0 62 -127 0 -128 0 3 -72z"/>
<path d="M4998 6398 c3 -79 10 -108 23 -108 6 0 8 4 4 9 -3 6 36 11 95 13 75
2 99 0 96 -9 -3 -7 1 -10 10 -6 17 6 14 -5 22 86 l8 77 -131 0 -130 0 3 -62z"/>
<path d="M5501 6375 c3 -46 8 -88 12 -91 4 -4 7 0 7 9 0 13 16 16 90 19 64 2
89 0 86 -8 -5 -14 24 -13 40 1 6 5 12 39 13 74 1 36 4 68 7 73 3 4 -55 8 -128
8 l-133 0 6 -85z"/>
<path d="M6000 6393 c0 -38 4 -73 8 -79 4 -6 51 -10 119 -10 62 1 113 1 114 1
0 0 4 35 7 78 l8 77 -128 0 -128 0 0 -67z"/>
<path d="M6498 6388 c3 -48 9 -76 20 -87 13 -13 15 -14 10 -1 -5 13 9 15 100
12 80 -3 107 -1 113 10 5 7 9 41 9 76 l0 62 -127 0 -128 0 3 -72z"/>
<path d="M6998 6389 c3 -64 7 -75 33 -100 32 -31 44 -37 36 -16 -3 7 1 27 8
44 10 24 22 33 48 38 50 10 76 -2 94 -41 9 -19 20 -34 24 -34 16 0 -3 56 -29
85 -15 16 -19 23 -9 16 11 -9 17 -9 17 -3 0 6 7 9 15 6 12 -5 15 3 15 35 l0
41 -127 0 -128 0 3 -71z"/>
<path d="M7501 6375 c3 -46 8 -88 12 -91 4 -4 7 0 7 9 0 13 16 16 90 19 64 2
89 0 86 -8 -5 -14 24 -13 40 1 6 5 12 39 13 74 1 36 4 68 7 73 3 4 -55 8 -128
8 l-133 0 6 -85z"/>
<path d="M7119 6314 c-11 -14 -10 -19 10 -35 29 -24 37 -24 44 0 3 12 -3 27
-12 35 -22 20 -25 20 -42 0z"/>
<path d="M3687 6303 c-4 -3 -7 -13 -7 -21 0 -12 2 -12 16 -1 15 12 16 11 10
-11 -5 -17 -4 -21 2 -11 5 7 15 10 21 7 8 -5 8 0 -1 18 -11 25 -28 33 -41 19z"/>
<path d="M8270 5258 c0 -3 11 -30 25 -59 13 -30 30 -87 37 -126 l12 -73 47 0
c75 0 81 5 57 45 -11 19 -17 38 -14 44 8 12 -18 33 -29 23 -5 -4 -5 -2 -2 4 3
6 -25 42 -63 79 -39 38 -70 67 -70 63z"/>
<path d="M8260 4731 c-13 -26 -13 -218 0 -226 6 -4 33 -4 60 0 45 6 52 11 80
53 16 25 30 53 30 63 0 9 7 19 15 23 8 3 15 14 15 25 0 11 3 27 7 37 6 16 7
16 14 -2 6 -16 8 -16 8 -2 2 37 -26 48 -124 48 -83 0 -96 -2 -105 -19z"/>
<path d="M1915 4550 c15 -16 32 -27 37 -24 5 3 7 0 6 -8 -2 -7 7 -14 20 -16
13 -2 22 -10 22 -21 0 -20 43 -64 53 -54 4 3 7 0 7 -8 0 -26 21 -39 43 -28 12
7 17 7 13 1 -3 -5 1 -13 10 -16 10 -4 13 -2 9 7 -4 6 -1 5 7 -3 7 -8 24 -17
38 -19 14 -1 32 -7 41 -12 21 -11 29 14 29 87 l0 51 -82 6 c-46 4 -102 7 -125
7 -24 0 -43 4 -43 9 0 5 -26 23 -57 40 l-57 31 29 -30z m169 -146 c3 -8 2 -12
-4 -9 -6 3 -10 10 -10 16 0 14 7 11 14 -7z"/>
<path d="M7960 4510 c-24 -8 -23 -8 7 -9 l32 -1 3 -77 3 -78 47 -1 c27 -1 45
2 42 7 -3 5 7 10 23 11 45 2 47 3 73 21 13 9 30 17 36 17 11 0 24 43 24 81 0
18 -9 19 -125 19 -77 0 -125 4 -125 10 0 11 -5 11 -40 0z"/>
<path d="M2502 4418 l3 -73 114 -3 c85 -2 117 1 123 10 4 7 8 41 8 76 l0 62
-125 0 -126 0 3 -72z"/>
<path d="M3000 4423 c0 -38 4 -72 8 -78 4 -6 52 -10 107 -10 55 0 103 4 107
10 4 6 8 1 9 -10 3 -38 17 39 18 98 l1 57 -125 0 -125 0 0 -67z"/>
<path d="M3500 4421 c0 -39 4 -72 9 -75 4 -3 56 -6 116 -7 81 -1 110 2 116 12
5 8 9 42 9 77 l0 62 -125 0 -125 0 0 -69z"/>
<path d="M4002 4418 l3 -73 114 -3 c85 -2 117 1 123 10 4 7 8 41 8 76 l0 62
-125 0 -126 0 3 -72z"/>
<path d="M4502 4418 l3 -73 114 -3 c85 -2 117 1 123 10 4 7 8 41 8 76 l0 62
-125 0 -126 0 3 -72z"/>
<path d="M5000 4426 c0 -35 2 -70 5 -78 4 -10 28 -12 99 -10 53 2 103 -1 114
-7 17 -9 20 -6 26 21 3 17 6 55 6 84 l0 54 -125 0 -125 0 0 -64z"/>
<path d="M5500 4421 c0 -39 4 -72 9 -75 4 -3 56 -6 116 -7 81 -1 110 2 116 12
5 8 9 42 9 77 l0 62 -125 0 -125 0 0 -69z"/>
<path d="M6002 4418 l3 -73 114 -3 c85 -2 117 1 123 10 4 7 8 41 8 76 l0 62
-125 0 -126 0 3 -72z"/>
<path d="M6502 4418 l3 -73 114 -3 c85 -2 117 1 123 10 4 7 8 41 8 76 l0 62
-125 0 -126 0 3 -72z"/>
<path d="M7000 4426 c0 -35 2 -70 5 -78 4 -10 31 -13 115 -11 79 1 110 -2 111
-10 3 -29 17 53 18 106 l1 57 -125 0 -125 0 0 -64z"/>
<path d="M7500 4421 c0 -39 4 -72 9 -75 4 -3 56 -6 116 -7 81 -1 110 2 116 12
5 8 9 42 9 77 l0 62 -125 0 -125 0 0 -69z"/>
<path d="M8311 3193 c10 -31 22 -88 26 -125 l6 -69 72 2 c49 2 72 7 72 16 0 6
-4 10 -8 8 -3 -3 -12 2 -19 10 -7 8 -9 15 -5 15 4 0 2 6 -4 13 -6 8 -8 17 -4
20 3 4 0 13 -7 22 -7 8 -9 15 -4 15 5 0 -21 29 -56 65 -81 82 -95 84 -69 8z
m104 -53 c10 -11 16 -20 13 -20 -3 0 -13 9 -23 20 -10 11 -16 20 -13 20 3 0
13 -9 23 -20z"/>
<path d="M8249 2746 c-2 -2 -2 -58 1 -123 l5 -118 53 0 c43 0 57 4 73 24 12
13 17 26 12 30 -5 3 -4 15 2 28 7 13 15 20 18 17 4 -4 9 2 13 12 3 10 12 30
19 44 7 14 15 39 17 55 l3 30 -106 3 c-58 1 -107 1 -110 -2z"/>
<path d="M1935 2560 c55 -56 65 -60 65 -27 0 17 -13 28 -58 50 l-57 28 50 -51z"/>
<path d="M7940 2540 c-14 -4 -62 -8 -107 -9 -67 -1 -83 -4 -83 -16 0 -13 -21
-15 -125 -15 -104 0 -125 2 -125 15 0 13 -21 15 -125 15 -104 0 -125 -2 -125
-15 0 -13 -21 -15 -125 -15 -104 0 -125 2 -125 15 0 13 -21 15 -125 15 -104 0
-125 -2 -125 -15 0 -13 -21 -15 -125 -15 -104 0 -125 2 -125 15 0 13 -21 15
-125 15 -104 0 -125 -2 -125 -15 0 -13 -21 -15 -125 -15 -104 0 -125 2 -125
15 0 13 -21 15 -125 15 -104 0 -125 -2 -125 -15 0 -13 -21 -15 -125 -15 -104
0 -125 2 -125 15 0 13 -21 15 -125 15 -103 0 -125 -3 -125 -15 0 -12 -23 -15
-122 -17 l-123 -3 0 -45 c0 -35 4 -45 18 -48 10 -2 26 3 36 12 13 12 20 13 28
5 13 -13 6 -39 -16 -56 -14 -11 -13 -12 6 -13 12 0 27 8 32 18 6 9 11 11 11 5
0 -7 10 -13 23 -13 18 0 19 2 7 10 -11 7 -7 10 18 10 24 0 31 -3 26 -12 -6
-10 -4 -10 8 0 13 10 17 10 21 0 9 -27 21 5 25 67 l4 65 124 0 123 0 3 -61 3
-62 93 2 c70 2 92 -1 92 -11 0 -9 3 -9 10 2 9 13 11 13 19 0 16 -24 25 -3 29
65 l4 65 124 0 124 0 0 -60 0 -61 123 3 122 3 3 58 3 57 124 0 125 0 0 -52 c0
-29 4 -58 8 -63 4 -7 49 -9 122 -5 l115 5 3 58 3 57 124 0 124 0 3 -61 3 -61
105 0 c68 0 107 -4 112 -11 13 -21 22 3 26 68 l4 65 124 0 123 0 3 -61 3 -62
93 2 c70 2 92 -1 92 -11 0 -9 3 -9 10 2 9 13 11 13 19 0 16 -24 25 -3 29 65
l4 65 124 0 124 0 0 -54 c0 -33 5 -58 13 -63 17 -11 110 -5 118 8 4 6 17 8 30
4 18 -5 20 -4 9 4 -12 8 -9 12 13 20 15 6 33 8 41 5 14 -5 31 50 20 67 -3 5
-59 9 -125 9 l-119 0 0 25 c0 27 -13 30 -60 15z m-2810 -92 c0 -4 -4 -8 -9 -8
-6 0 -12 4 -15 8 -3 5 1 9 9 9 8 0 15 -4 15 -9z"/>
<path d="M2250 2515 c0 -12 -20 -15 -120 -15 -66 0 -120 -4 -120 -9 0 -5 17
-21 37 -37 20 -15 33 -22 29 -15 -7 10 -4 11 12 2 12 -6 24 -16 27 -21 4 -6
11 -8 16 -5 5 4 9 1 9 -5 0 -6 5 -8 10 -5 6 3 10 1 10 -5 0 -6 5 -8 10 -5 6 3
10 1 10 -5 0 -6 5 -8 12 -3 7 4 22 7 33 8 17 0 20 8 23 53 l3 52 125 0 124 0
0 -52 c0 -29 4 -58 8 -63 4 -7 49 -9 122 -5 l115 5 3 58 3 57 124 0 124 0 3
-62 3 -61 105 1 c70 0 107 -3 112 -11 13 -21 22 3 26 68 l4 65 124 0 123 0 3
-61 3 -62 93 2 c70 2 92 -1 92 -11 0 -9 3 -9 10 2 9 13 11 13 19 0 16 -24 25
-3 29 65 l4 65 124 0 124 0 0 -60 0 -61 123 3 122 3 3 58 3 57 124 0 125 0 0
-49 c0 -79 -3 -77 118 -74 70 1 98 -1 82 -6 -24 -9 -24 -9 6 -10 36 -1 44 14
44 92 l0 47 125 0 c104 0 125 2 125 15 0 13 -21 15 -125 15 -104 0 -125 -2
-125 -15 0 -13 -21 -15 -125 -15 -104 0 -125 2 -125 15 0 13 -21 15 -125 15
-104 0 -125 -2 -125 -15 0 -13 -21 -15 -125 -15 -104 0 -125 2 -125 15 0 13
-21 15 -125 15 -104 0 -125 -2 -125 -15 0 -13 -21 -15 -125 -15 -104 0 -125 2
-125 15 0 13 -21 15 -125 15 -104 0 -125 -2 -125 -15 0 -13 -21 -15 -125 -15
-104 0 -125 2 -125 15 0 13 -21 15 -125 15 -104 0 -125 -2 -125 -15 0 -13 -21
-15 -125 -15 -104 0 -125 2 -125 15 0 13 -21 15 -125 15 -104 0 -125 -2 -125
-15z"/>
<path d="M3088 2363 c6 -2 18 -2 25 0 6 3 1 5 -13 5 -14 0 -19 -2 -12 -5z"/>
<path d="M4208 2363 c6 -2 18 -2 25 0 6 3 1 5 -13 5 -14 0 -19 -2 -12 -5z"/>
<path d="M6208 2363 c6 -2 18 -2 25 0 6 3 1 5 -13 5 -14 0 -19 -2 -12 -5z"/>
<path d="M160 2230 c0 -53 4 -90 10 -90 6 0 10 14 10 30 0 36 1 36 57 9 41
-20 62 -21 50 -2 -3 4 -28 17 -56 28 -47 18 -51 22 -51 52 0 37 1 38 38 19 40
-20 72 -29 72 -19 0 9 -103 63 -120 63 -6 0 -10 -38 -10 -90z"/>
<path d="M235 2120 c-4 -6 -16 -8 -26 -5 -35 11 -69 -42 -39 -60 20 -12 93
-15 107 -4 18 15 16 44 -3 63 -18 19 -30 20 -39 6z m-27 -37 c-4 -22 -22 -20
-26 1 -2 10 3 16 13 16 10 0 15 -7 13 -17z m60 0 c-2 -10 -10 -18 -18 -18 -8
0 -16 8 -18 18 -2 12 3 17 18 17 15 0 20 -5 18 -17z"/>
<path d="M160 2001 c0 -17 12 -41 21 -41 5 0 9 6 9 14 0 7 10 13 23 13 59 1
77 4 77 13 0 6 -28 10 -65 10 -36 0 -65 -4 -65 -9z"/>
<path d="M176 1937 c-11 -8 -17 -22 -14 -37 4 -31 25 -37 24 -8 -1 33 34 35
64 3 32 -34 40 -32 40 15 0 22 -4 40 -10 40 -5 0 -10 -12 -10 -26 0 -26 0 -26
-17 -6 -24 27 -55 35 -77 19z"/>
<path d="M176 1837 c-11 -8 -17 -22 -14 -37 4 -31 25 -37 24 -8 -1 33 34 35
64 3 32 -34 40 -32 40 15 0 22 -4 40 -10 40 -5 0 -10 -12 -10 -26 0 -26 0 -26
-17 -6 -24 27 -55 35 -77 19z"/>
<path d="M160 1716 c0 -24 5 -36 14 -36 8 0 20 -2 28 -5 8 -3 18 6 25 26 14
37 38 34 38 -4 -1 -16 5 -27 12 -27 18 0 17 55 -2 70 -21 18 -48 8 -63 -23
-14 -29 -32 -28 -32 3 0 10 -4 22 -10 25 -6 4 -10 -8 -10 -29z"/>
<path d="M270 1629 c0 -19 -1 -19 -22 -5 -35 25 -76 21 -84 -8 -6 -25 1 -46
15 -46 4 0 7 10 7 23 -1 32 36 35 60 5 35 -44 44 -43 44 6 0 25 -4 46 -10 46
-5 0 -10 -9 -10 -21z"/>
<path d="M270 1529 c0 -19 -1 -19 -22 -5 -35 25 -76 21 -84 -8 -6 -25 1 -46
15 -46 4 0 7 10 7 23 -1 32 34 34 64 2 32 -34 40 -32 40 15 0 22 -4 40 -10 40
-5 0 -10 -9 -10 -21z"/>
<path d="M190 1450 c0 -5 -8 -7 -17 -4 -17 5 -17 5 0 -9 9 -8 17 -17 17 -20 0
-3 -8 -8 -17 -10 -17 -4 -17 -5 0 -6 9 0 17 -6 17 -12 0 -6 7 -8 17 -5 9 4 19
2 23 -4 4 -7 15 -7 30 -2 19 7 21 10 7 15 -23 9 -22 28 1 20 13 -5 12 -1 -5
15 -13 13 -29 19 -37 16 -9 -3 -16 -1 -16 5 0 6 -4 11 -10 11 -5 0 -10 -4 -10
-10z m40 -40 c0 -5 -4 -10 -10 -10 -5 0 -10 5 -10 10 0 6 5 10 10 10 6 0 10
-4 10 -10z"/>
<path d="M135 1280 c3 -6 48 -10 101 -10 56 0 94 4 94 10 0 6 -40 10 -101 10
-64 0 -98 -4 -94 -10z"/>
<path d="M260 1190 c-23 -17 -26 -17 -42 -3 -10 9 -21 13 -26 9 -4 -4 4 -16
17 -27 l23 -19 -46 0 c-34 0 -46 -4 -46 -15 0 -12 15 -15 75 -15 60 0 75 3 75
15 0 9 -9 15 -21 15 -21 0 -21 0 1 18 32 26 22 46 -10 22z"/>
<path d="M190 1081 c0 -41 59 -68 88 -39 13 13 17 58 4 58 -4 0 -12 -10 -17
-22 -6 -13 -19 -23 -30 -23 -13 0 -21 8 -23 23 -4 27 -22 30 -22 3z"/>
<path d="M208 999 c-21 -12 -24 -49 -6 -67 19 -19 66 -15 78 7 14 27 13 37 -6
55 -18 18 -41 20 -66 5z m57 -34 c0 -22 -31 -33 -47 -17 -17 17 -1 44 24 40
15 -2 23 -10 23 -23z"/>
<path d="M190 900 c0 -5 -7 -10 -15 -10 -21 0 -19 -13 4 -27 26 -16 104 5 109
30 2 9 -1 17 -7 17 -6 0 -11 -4 -11 -10 0 -5 -13 -10 -30 -10 -16 0 -30 5 -30
10 0 6 -4 10 -10 10 -5 0 -10 -4 -10 -10z"/>
<path d="M157 833 c-11 -11 -8 -48 5 -61 20 -20 46 -13 68 18 24 34 44 30 37
-6 -2 -13 0 -24 5 -24 16 0 21 31 10 56 -16 34 -49 31 -70 -6 -19 -33 -37 -34
-37 -2 -1 24 -9 35 -18 25z"/>
<path d="M200 675 c-21 -25 3 -65 38 -65 15 0 33 5 40 12 15 15 16 54 2 63 -6
3 -10 -5 -10 -19 0 -14 -4 -28 -10 -31 -6 -4 -10 7 -10 24 0 24 -4 31 -19 31
-10 0 -24 -7 -31 -15z m30 -26 c0 -11 -4 -17 -10 -14 -5 3 -10 13 -10 21 0 8
5 14 10 14 6 0 10 -9 10 -21z"/>
<path d="M197 560 c-8 -21 -18 -30 -34 -30 -14 0 -23 -6 -23 -15 0 -13 13 -15
73 -13 67 3 72 5 75 26 5 30 -24 62 -55 62 -18 0 -28 -8 -36 -30z m61 -2 c19
-19 14 -28 -18 -28 -18 0 -30 5 -30 13 0 28 27 36 48 15z"/>
<path d="M202 468 c-15 -15 -15 -51 0 -66 19 -19 66 -15 78 7 14 27 13 37 -6
55 -18 19 -55 21 -72 4z m63 -33 c0 -13 -8 -21 -23 -23 -26 -4 -42 25 -21 39
22 14 44 6 44 -16z"/>
<path d="M140 356 c0 -10 8 -16 23 -16 16 0 26 -9 34 -31 10 -27 16 -30 45
-27 25 2 35 9 42 31 14 39 -2 50 -79 55 -55 4 -65 2 -65 -12z m130 -31 c0 -21
-27 -30 -45 -15 -23 19 -18 30 15 30 20 0 30 -5 30 -15z"/>
<path d="M220 246 c-36 -12 -66 -29 -68 -37 -2 -9 17 -20 55 -32 32 -10 64
-20 71 -23 6 -3 12 1 12 10 0 9 -8 16 -20 16 -15 0 -20 7 -20 26 0 17 6 28 20
31 11 3 20 12 20 19 0 8 -1 14 -2 14 -2 -1 -32 -11 -68 -24z m8 -51 c-7 -7
-48 7 -48 15 0 15 45 16 48 2 2 -8 2 -15 0 -17z"/>
</g>
</svg>
