<svg width="25" height="22" viewBox="0 0 25 22" fill="none" xmlns="http://www.w3.org/2000/svg">
<path fill-rule="evenodd" clip-rule="evenodd" d="M24 14.3333C24 15.5606 22.8558 16.5556 21.4444 16.5556H6.11111L1 21V3.22222C1 1.99492 2.14416 1 3.55556 1H21.4444C22.8558 1 24 1.99492 24 3.22222V14.3333Z" stroke="#007AFF" stroke-width="2" stroke-linecap="round" stroke-linejoin="round"/>
<path fill-rule="evenodd" clip-rule="evenodd" d="M24 14.3333C24 15.5606 22.8558 16.5556 21.4444 16.5556H6.11111L1 21V3.22222C1 1.99492 2.14416 1 3.55556 1H21.4444C22.8558 1 24 1.99492 24 3.22222V14.3333Z" stroke="#007AFF" stroke-width="2" stroke-linecap="round" stroke-linejoin="round"/>
<path fill-rule="evenodd" clip-rule="evenodd" d="M24 14.3333C24 15.5606 22.8558 16.5556 21.4444 16.5556H6.11111L1 21V3.22222C1 1.99492 2.14416 1 3.55556 1H21.4444C22.8558 1 24 1.99492 24 3.22222V14.3333Z" stroke="#007AFF" stroke-width="2" stroke-linecap="round" stroke-linejoin="round"/>
</svg>
